<?xml version="1.0" encoding="utf-8"?>
<svg version="1.1" xmlns:xlink="http://www.w3.org/1999/xlink" width="12px" height="12px" viewBox="112 52  12 12" xmlns="http://www.w3.org/2000/svg">
  <defs>
    <linearGradient gradientUnits="userSpaceOnUse" x1="118" y1="52" x2="118" y2="64" id="LinearGradient35126">
      <stop id="Stop35127" stop-color="#f59a23" offset="0" />
      <stop id="Stop35128" stop-color="#ac620b" offset="1" />
    </linearGradient>
  </defs>
  <path d="M 118 53  C 120.8 53  123 55.2  123 58  C 123 60.8  120.8 63  118 63  C 115.2 63  113 60.8  113 58  C 113 55.2  115.2 53  118 53  Z " fill-rule="nonzero" fill="url(#LinearGradient35126)" stroke="none" />
  <path d="M 118 53  C 120.8 53  123 55.2  123 58  C 123 60.8  120.8 63  118 63  C 115.2 63  113 60.8  113 58  C 113 55.2  115.2 53  118 53  Z " stroke-width="2" stroke="#5a5a5a" fill="none" />
  <path d="M 118 61  C 116.32 61  115 59.68  115 58  C 115 56.32  116.32 55  118 55  C 119.68 55  121 56.32  121 58  C 121 59.68  119.68 61  118 61  " fill-rule="nonzero" fill="#5a5a5a" stroke="none" />
</svg>