<?xml version="1.0" encoding="utf-8"?>
<svg version="1.1" xmlns:xlink="http://www.w3.org/1999/xlink" width="22px" height="23px" xmlns="http://www.w3.org/2000/svg">
  <defs>
    <linearGradient gradientUnits="userSpaceOnUse" x1="11" y1="0" x2="11" y2="23" id="LinearGradient35232">
      <stop id="Stop35233" stop-color="#60ccd0" offset="0" />
      <stop id="Stop35234" stop-color="#207c83" offset="1" />
    </linearGradient>
  </defs>
  <g transform="matrix(1 0 0 1 -1308 -21 )">
    <path d="M 8.9515306122449 21.032421875  C 8.9421768707483 21.0983072916667  8.9515306122449 21.1791666666667  8.9795918367347 21.275  C 8.9795918367347 21.3229166666667  8.98426870748299 21.4427083333333  8.99362244897959 21.634375  C 9.00297619047619 21.8260416666667  9.00531462585034 21.984765625  9.00063775510204 22.110546875  C 8.99596088435374 22.236328125  8.98193027210884 22.3770833333333  8.95854591836735 22.5328125  C 8.93516156462585 22.6885416666667  8.88839285714286 22.8053385416667  8.81823979591837 22.883203125  C 8.74808673469388 22.9610677083333  8.65221088435374 23  8.53061224489796 23  L 4.04081632653061 23  C 2.92772108843537 23  1.97597789115646 22.4938802083333  1.18558673469388 21.481640625  C 0.395195578231292 20.4694010416667  0 19.2505208333333  0 17.825  L 0 5.175  C 0 3.74947916666666  0.395195578231292 2.53059895833333  1.18558673469388 1.518359375  C 1.97597789115646 0.506119791666663  2.92772108843537 0  4.04081632653061 0  L 8.53061224489796 0  C 8.65221088435374 0  8.75744047619048 0.0569010416666634  8.84630102040816 0.170703125000001  C 8.93516156462585 0.284505208333332  8.9795918367347 0.419270833333332  8.9795918367347 0.575000000000001  C 8.9795918367347 0.622916666666664  8.98426870748299 0.742708333333332  8.99362244897959 0.934375000000001  C 9.00297619047619 1.12604166666666  9.00531462585034 1.284765625  9.00063775510204 1.410546875  C 8.99596088435374 1.536328125  8.98193027210884 1.67708333333333  8.95854591836735 1.8328125  C 8.93516156462585 1.98854166666666  8.88839285714286 2.10533854166666  8.81823979591837 2.183203125  C 8.74808673469388 2.26106770833333  8.65221088435374 2.3  8.53061224489796 2.3  L 4.04081632653061 2.3  C 3.4234693877551 2.3  2.89498299319728 2.58151041666666  2.45535714285714 3.14453125  C 2.01573129251701 3.70755208333333  1.79591836734694 4.384375  2 5.175  L 2 17.825  C 1.79591836734694 18.615625  2.01573129251701 19.2924479166667  2.45535714285714 19.85546875  C 2.89498299319728 20.4184895833333  3.4234693877551 20.7  4.04081632653061 20.7  L 8.08163265306123 20.7  L 8.2359693877551 20.7  L 8.41836734693877 20.7  C 8.41836734693877 20.7  8.47215136054422 20.7059895833333  8.5797193877551 20.71796875  C 8.68728741496599 20.7299479166667  8.74107142857143 20.7479166666667  8.74107142857143 20.771875  C 8.74107142857143 20.7958333333333  8.77848639455782 20.8287760416667  8.85331632653061 20.870703125  C 8.9281462585034 20.9126302083333  8.9608843537415 20.9665364583333  8.9515306122449 21.032421875  Z M 21.7334183673469 10.69140625  C 21.9111394557823 10.9190104166667  22 11.1885416666667  22 11.5  C 22 11.8114583333333  21.9111394557823 12.0809895833333  21.7334183673469 12.30859375  L 14.1007653061224 22.08359375  C 13.9230442176871 22.3111979166667  13.7125850340136 22.425  13.469387755102 22.425  C 13.2261904761905 22.425  13.015731292517 22.3111979166667  12.8380102040816 22.08359375  C 12.6602891156463 21.8559895833333  12.5714285714286 21.5864583333333  12.5714285714286 21.275  L 12.5714285714286 16.1  L 6.28571428571429 16.1  C 6.04251700680272 16.1  5.83205782312925 15.9861979166667  5.65433673469388 15.75859375  C 5.4766156462585 15.5309895833333  5.38775510204082 15.2614583333333  5.38775510204082 14.95  L 5.38775510204082 8.05  C 5.38775510204082 7.73854166666666  5.4766156462585 7.46901041666666  5.65433673469388 7.24140625  C 5.83205782312925 7.01380208333333  6.04251700680272 6.9  6.28571428571429 6.9  L 12.5714285714286 6.9  L 12.5714285714286 1.725  C 12.5714285714286 1.41354166666666  12.6602891156463 1.14401041666666  12.8380102040816 0.916406249999999  C 13.015731292517 0.688802083333332  13.2261904761905 0.575000000000001  13.469387755102 0.575000000000001  C 13.7125850340136 0.575000000000001  13.9230442176871 0.688802083333332  14.1007653061224 0.916406249999999  L 21.7334183673469 10.69140625  Z " fill-rule="nonzero" fill="url(#LinearGradient35232)" stroke="none" transform="matrix(1 0 0 1 1308 21 )" />
  </g>
</svg>