<?xml version="1.0" encoding="utf-8"?>
<svg version="1.1" xmlns:xlink="http://www.w3.org/1999/xlink" width="25px" height="23px" xmlns="http://www.w3.org/2000/svg">
  <g transform="matrix(1 0 0 1 -1219 -19 )">
    <path d="M 23.3258928571429 4.76610279765777  C 24.4419642857143 6.23758403816959  25 7.84124918672739  25 9.57709824333116  C 25 11.3129472999349  24.4419642857143 12.9166124484927  23.3258928571429 14.3880936890046  C 22.2098214285714 15.8595749295164  20.6938244047619 17.0217957059206  18.7779017857143 17.8747560182173  C 16.8619791666667 18.727716330514  14.7693452380952 19.1541964866623  12.5 19.1541964866623  C 11.8489583333333 19.1541964866623  11.1746651785714 19.1142919106485  10.4771205357143 19.0344827586207  C 8.63560267857143 20.7803079592279  6.49646577380952 21.9874213836478  4.05970982142857 22.6558230318803  C 3.60398065476191 22.7954890479289  3.07384672619048 22.905226631967  2.46930803571429 22.9850357839948  C 2.31119791666667 23.0049880720017  2.16936383928571 22.9600954239861  2.04380580357143 22.850357839948  C 1.91824776785714 22.7406202559098  1.83686755952381 22.5959661678595  1.79966517857143 22.416395575797  L 1.79966517857143 22.4014313597918  C 1.77176339285714 22.3615267837779  1.76943824404762 22.3016699197571  1.79268973214286 22.2218607677293  C 1.8159412202381 22.1420516157016  1.82524181547619 22.0921708956842  1.82059151785714 22.0722186076773  C 1.8159412202381 22.0522663196704  1.83686755952381 22.0048796356539  1.88337053571429 21.9300585556278  L 1.96707589285714 21.795380611581  C 1.96707589285714 21.795380611581  1.99962797619048 21.7529819995663  2.06473214285714 21.6681847755368  C 2.12983630952381 21.5833875515073  2.16703869047619 21.5384949034917  2.17633928571429 21.5335068314899  C 2.24144345238095 21.4536976794622  2.38560267857143 21.2816091954023  2.60881696428571 21.0172413793103  C 2.83203125 20.7528735632184  2.99246651785714 20.5633268271525  3.09012276785714 20.4486011711126  C 3.18777901785714 20.3338755150727  3.33193824404762 20.1368466710041  3.52260044642857 19.857514638907  C 3.71326264880952 19.5781826068098  3.86439732142857 19.3237909347213  3.97600446428571 19.0943396226415  C 4.08761160714286 18.8648883105617  4.21316964285714 18.5705920624593  4.35267857142857 18.2114508783344  C 4.4921875 17.8523096942095  4.61309523809524 17.4732162220776  4.71540178571429 17.0741704619388  C 3.25520833333333 16.18629364563  2.10425967261905 15.0889178052483  1.26255580357143 13.7820429407938  C 0.420851934523809 12.4751680763392  0 11.0735198438517  0 9.57709824333116  C 0 8.28019952288007  0.330171130952381 7.04066363044893  0.990513392857143 5.85849056603774  C 1.6508556547619 4.67631750162655  2.5390625 3.65625677727174  3.65513392857143 2.79830839297332  C 4.77120535714286 1.94036000867491  6.10119047619048 1.25948818043808  7.64508928571429 0.75569290826285  C 9.1889880952381 0.251897636087615  10.8072916666667 0  12.5 0  C 14.7693452380952 0  16.8619791666667 0.426480156148341  18.7779017857143 1.27944046844502  C 20.6938244047619 2.13240078074171  22.2098214285714 3.29462155714595  23.3258928571429 4.76610279765777  Z " fill-rule="nonzero" fill="#60ccd0" stroke="none" transform="matrix(1 0 0 1 1219 19 )" />
  </g>
</svg>