<?xml version="1.0" encoding="utf-8"?>
<svg version="1.1" xmlns:xlink="http://www.w3.org/1999/xlink" width="12px" height="12px" viewBox="2 243.5  12 12" xmlns="http://www.w3.org/2000/svg">
  <defs>
    <linearGradient gradientUnits="userSpaceOnUse" x1="8" y1="243.5" x2="8" y2="255.5" id="LinearGradient34748">
      <stop id="Stop34749" stop-color="#f59a23" offset="0" />
      <stop id="Stop34750" stop-color="#ac620b" offset="1" />
    </linearGradient>
  </defs>
  <path d="M 8 244.5  C 10.8 244.5  13 246.7  13 249.5  C 13 252.3  10.8 254.5  8 254.5  C 5.2 254.5  3 252.3  3 249.5  C 3 246.7  5.2 244.5  8 244.5  Z " fill-rule="nonzero" fill="url(#LinearGradient34748)" stroke="none" />
  <path d="M 8 244.5  C 10.8 244.5  13 246.7  13 249.5  C 13 252.3  10.8 254.5  8 254.5  C 5.2 254.5  3 252.3  3 249.5  C 3 246.7  5.2 244.5  8 244.5  Z " stroke-width="2" stroke="#5a5a5a" fill="none" />
  <path d="M 8 252.5  C 6.32 252.5  5 251.18  5 249.5  C 5 247.82  6.32 246.5  8 246.5  C 9.68 246.5  11 247.82  11 249.5  C 11 251.18  9.68 252.5  8 252.5  " fill-rule="nonzero" fill="#5a5a5a" stroke="none" />
</svg>