<?xml version="1.0" encoding="utf-8"?>
<svg version="1.1" xmlns:xlink="http://www.w3.org/1999/xlink" width="12px" height="12px" viewBox="126 242.5  12 12" xmlns="http://www.w3.org/2000/svg">
  <defs>
    <linearGradient gradientUnits="userSpaceOnUse" x1="132" y1="242.5" x2="132" y2="254.5" id="LinearGradient34766">
      <stop id="Stop34767" stop-color="#f59a23" offset="0" />
      <stop id="Stop34768" stop-color="#ac620b" offset="1" />
    </linearGradient>
  </defs>
  <path d="M 132 243.5  C 134.8 243.5  137 245.7  137 248.5  C 137 251.3  134.8 253.5  132 253.5  C 129.2 253.5  127 251.3  127 248.5  C 127 245.7  129.2 243.5  132 243.5  Z " fill-rule="nonzero" fill="url(#LinearGradient34766)" stroke="none" />
  <path d="M 132 243.5  C 134.8 243.5  137 245.7  137 248.5  C 137 251.3  134.8 253.5  132 253.5  C 129.2 253.5  127 251.3  127 248.5  C 127 245.7  129.2 243.5  132 243.5  Z " stroke-width="2" stroke="#5a5a5a" fill="none" />
  <path d="M 132 251.5  C 130.32 251.5  129 250.18  129 248.5  C 129 246.82  130.32 245.5  132 245.5  C 133.68 245.5  135 246.82  135 248.5  C 135 250.18  133.68 251.5  132 251.5  " fill-rule="nonzero" fill="#5a5a5a" stroke="none" />
</svg>