<?xml version="1.0" encoding="utf-8"?>
<svg version="1.1" xmlns:xlink="http://www.w3.org/1999/xlink" width="12px" height="12px" viewBox="15 4  12 12" xmlns="http://www.w3.org/2000/svg">
  <defs>
    <linearGradient gradientUnits="userSpaceOnUse" x1="21" y1="4" x2="21" y2="16" id="LinearGradient34787">
      <stop id="Stop34788" stop-color="#f59a23" offset="0" />
      <stop id="Stop34789" stop-color="#ac620b" offset="1" />
    </linearGradient>
  </defs>
  <path d="M 21 5  C 23.8 5  26 7.2  26 10  C 26 12.8  23.8 15  21 15  C 18.2 15  16 12.8  16 10  C 16 7.2  18.2 5  21 5  Z " fill-rule="nonzero" fill="url(#LinearGradient34787)" stroke="none" />
  <path d="M 21 5  C 23.8 5  26 7.2  26 10  C 26 12.8  23.8 15  21 15  C 18.2 15  16 12.8  16 10  C 16 7.2  18.2 5  21 5  Z " stroke-width="2" stroke="#5a5a5a" fill="none" />
  <path d="M 21 13  C 19.32 13  18 11.68  18 10  C 18 8.32  19.32 7  21 7  C 22.68 7  24 8.32  24 10  C 24 11.68  22.68 13  21 13  " fill-rule="nonzero" fill="#5a5a5a" stroke="none" />
</svg>