<?xml version="1.0" encoding="utf-8"?>
<svg version="1.1" xmlns:xlink="http://www.w3.org/1999/xlink" width="12px" height="12px" viewBox="15 28  12 12" xmlns="http://www.w3.org/2000/svg">
  <defs>
    <linearGradient gradientUnits="userSpaceOnUse" x1="21" y1="28" x2="21" y2="40" id="LinearGradient34793">
      <stop id="Stop34794" stop-color="#f59a23" offset="0" />
      <stop id="Stop34795" stop-color="#ac620b" offset="1" />
    </linearGradient>
  </defs>
  <path d="M 21 29  C 23.8 29  26 31.2  26 34  C 26 36.8  23.8 39  21 39  C 18.2 39  16 36.8  16 34  C 16 31.2  18.2 29  21 29  Z " fill-rule="nonzero" fill="url(#LinearGradient34793)" stroke="none" />
  <path d="M 21 29  C 23.8 29  26 31.2  26 34  C 26 36.8  23.8 39  21 39  C 18.2 39  16 36.8  16 34  C 16 31.2  18.2 29  21 29  Z " stroke-width="2" stroke="#5a5a5a" fill="none" />
  <path d="M 21 37  C 19.32 37  18 35.68  18 34  C 18 32.32  19.32 31  21 31  C 22.68 31  24 32.32  24 34  C 24 35.68  22.68 37  21 37  " fill-rule="nonzero" fill="#5a5a5a" stroke="none" />
</svg>