<?xml version="1.0" encoding="utf-8"?>
<svg version="1.1" xmlns:xlink="http://www.w3.org/1999/xlink" width="12px" height="12px" viewBox="112 28  12 12" xmlns="http://www.w3.org/2000/svg">
  <defs>
    <linearGradient gradientUnits="userSpaceOnUse" x1="118" y1="28" x2="118" y2="40" id="LinearGradient139">
      <stop id="Stop140" stop-color="#f59a23" offset="0" />
      <stop id="Stop141" stop-color="#ac620b" offset="1" />
    </linearGradient>
  </defs>
  <path d="M 118 29  C 120.8 29  123 31.2  123 34  C 123 36.8  120.8 39  118 39  C 115.2 39  113 36.8  113 34  C 113 31.2  115.2 29  118 29  Z " fill-rule="nonzero" fill="url(#LinearGradient139)" stroke="none" />
  <path d="M 118 29  C 120.8 29  123 31.2  123 34  C 123 36.8  120.8 39  118 39  C 115.2 39  113 36.8  113 34  C 113 31.2  115.2 29  118 29  Z " stroke-width="2" stroke="#5a5a5a" fill="none" />
  <path d="M 118 37  C 116.32 37  115 35.68  115 34  C 115 32.32  116.32 31  118 31  C 119.68 31  121 32.32  121 34  C 121 35.68  119.68 37  118 37  " fill-rule="nonzero" fill="#5a5a5a" stroke="none" />
</svg>