<?xml version="1.0" encoding="utf-8"?>
<svg version="1.1" xmlns:xlink="http://www.w3.org/1999/xlink" width="12px" height="12px" viewBox="112 76  12 12" xmlns="http://www.w3.org/2000/svg">
  <defs>
    <linearGradient gradientUnits="userSpaceOnUse" x1="118" y1="76" x2="118" y2="88" id="LinearGradient34859">
      <stop id="Stop34860" stop-color="#f59a23" offset="0" />
      <stop id="Stop34861" stop-color="#ac620b" offset="1" />
    </linearGradient>
  </defs>
  <path d="M 118 77  C 120.8 77  123 79.2  123 82  C 123 84.8  120.8 87  118 87  C 115.2 87  113 84.8  113 82  C 113 79.2  115.2 77  118 77  Z " fill-rule="nonzero" fill="url(#LinearGradient34859)" stroke="none" />
  <path d="M 118 77  C 120.8 77  123 79.2  123 82  C 123 84.8  120.8 87  118 87  C 115.2 87  113 84.8  113 82  C 113 79.2  115.2 77  118 77  Z " stroke-width="2" stroke="#5a5a5a" fill="none" />
  <path d="M 118 85  C 116.32 85  115 83.68  115 82  C 115 80.32  116.32 79  118 79  C 119.68 79  121 80.32  121 82  C 121 83.68  119.68 85  118 85  " fill-rule="nonzero" fill="#5a5a5a" stroke="none" />
</svg>