<?xml version="1.0" encoding="utf-8"?>
<svg version="1.1" xmlns:xlink="http://www.w3.org/1999/xlink" width="12px" height="12px" viewBox="112 124  12 12" xmlns="http://www.w3.org/2000/svg">
  <defs>
    <linearGradient gradientUnits="userSpaceOnUse" x1="118" y1="124" x2="118" y2="136" id="LinearGradient34883">
      <stop id="Stop34884" stop-color="#f59a23" offset="0" />
      <stop id="Stop34885" stop-color="#ac620b" offset="1" />
    </linearGradient>
  </defs>
  <path d="M 118 125  C 120.8 125  123 127.2  123 130  C 123 132.8  120.8 135  118 135  C 115.2 135  113 132.8  113 130  C 113 127.2  115.2 125  118 125  Z " fill-rule="nonzero" fill="url(#LinearGradient34883)" stroke="none" />
  <path d="M 118 125  C 120.8 125  123 127.2  123 130  C 123 132.8  120.8 135  118 135  C 115.2 135  113 132.8  113 130  C 113 127.2  115.2 125  118 125  Z " stroke-width="2" stroke="#5a5a5a" fill="none" />
  <path d="M 118 133  C 116.32 133  115 131.68  115 130  C 115 128.32  116.32 127  118 127  C 119.68 127  121 128.32  121 130  C 121 131.68  119.68 133  118 133  " fill-rule="nonzero" fill="#5a5a5a" stroke="none" />
</svg>