<?xml version="1.0" encoding="utf-8"?>
<svg version="1.1" xmlns:xlink="http://www.w3.org/1999/xlink" width="12px" height="12px" viewBox="112 148  12 12" xmlns="http://www.w3.org/2000/svg">
  <defs>
    <linearGradient gradientUnits="userSpaceOnUse" x1="118" y1="148" x2="118" y2="160" id="LinearGradient34889">
      <stop id="Stop34890" stop-color="#f59a23" offset="0" />
      <stop id="Stop34891" stop-color="#ac620b" offset="1" />
    </linearGradient>
  </defs>
  <path d="M 118 149  C 120.8 149  123 151.2  123 154  C 123 156.8  120.8 159  118 159  C 115.2 159  113 156.8  113 154  C 113 151.2  115.2 149  118 149  Z " fill-rule="nonzero" fill="url(#LinearGradient34889)" stroke="none" />
  <path d="M 118 149  C 120.8 149  123 151.2  123 154  C 123 156.8  120.8 159  118 159  C 115.2 159  113 156.8  113 154  C 113 151.2  115.2 149  118 149  Z " stroke-width="2" stroke="#5a5a5a" fill="none" />
  <path d="M 118 157  C 116.32 157  115 155.68  115 154  C 115 152.32  116.32 151  118 151  C 119.68 151  121 152.32  121 154  C 121 155.68  119.68 157  118 157  " fill-rule="nonzero" fill="#5a5a5a" stroke="none" />
</svg>